<svg width="1282" height="726" xmlns="http://www.w3.org/2000/svg" xmlns:xlink="http://www.w3.org/1999/xlink" overflow="hidden"><defs><clipPath id="clip0"><rect x="-1" y="-1" width="1282" height="726"/></clipPath></defs><g clip-path="url(#clip0)" transform="translate(1 1)"><rect x="0" y="0" width="1280" height="720" fill="#DEEBF7"/><rect x="0" y="0" width="1280" height="189" fill="#2E75B6"/><path d="M38 104.816C38 90.0061 50.0061 78 64.8163 78L1213.18 78C1227.99 78 1240 90.0061 1240 104.816L1240 693.184C1240 707.994 1227.99 720 1213.18 720L64.8163 720C50.0061 720 38 707.994 38 693.184Z" fill="#FFFFFF" fill-rule="evenodd"/><path d="M38.5001 399.5 1239.9 399.5" stroke="#BDD7EE" stroke-width="0.666667" stroke-miterlimit="8" fill="none" fill-rule="evenodd"/><path d="M409.5 79.5001 409.5 395.461" stroke="#BDD7EE" stroke-width="0.666667" stroke-miterlimit="8" fill="none" fill-rule="evenodd"/><path d="M826.5 83.5001 826.5 399.461" stroke="#BDD7EE" stroke-width="0.666667" stroke-miterlimit="8" fill="none" fill-rule="evenodd"/><path d="M409.5 404.5 409.5 720.461" stroke="#BDD7EE" stroke-width="0.666667" stroke-miterlimit="8" fill="none" fill-rule="evenodd"/><path d="M826.5 408.5 826.5 724.461" stroke="#BDD7EE" stroke-width="0.666667" stroke-miterlimit="8" fill="none" fill-rule="evenodd"/></g></svg>